<?xml version="1.0" encoding="UTF-8" standalone="no" ?>
<!DOCTYPE svg PUBLIC "-//W3C//DTD SVG 1.1//EN" "http://www.w3.org/Graphics/SVG/1.1/DTD/svg11.dtd">
<svg xmlns="http://www.w3.org/2000/svg" xmlns:xlink="http://www.w3.org/1999/xlink" version="1.1" width="1080" height="1080" viewBox="0 0 1080 1080" xml:space="preserve">
<desc>Created with Fabric.js 5.2.4</desc>
<defs>
</defs>
<rect x="0" y="0" width="100%" height="100%" fill="transparent"></rect>
<g transform="matrix(1 0 0 1 540 540)" id="7935a33a-30dc-4fea-9045-9d06082c3dba"  >
<rect style="stroke: none; stroke-width: 1; stroke-dasharray: none; stroke-linecap: butt; stroke-dashoffset: 0; stroke-linejoin: miter; stroke-miterlimit: 4; fill: rgb(255,255,255); fill-rule: nonzero; opacity: 1; visibility: hidden;" vector-effect="non-scaling-stroke"  x="-540" y="-540" rx="0" ry="0" width="1080" height="1080" />
</g>
<g transform="matrix(1 0 0 1 540 540)" id="02738853-0e0a-4582-a54d-08a75c1e4314"  >
</g>
<g transform="matrix(1.17 0 0 1.17 538.59 538.27)"  >
<path style="stroke: rgb(0,0,0); stroke-width: 0; stroke-dasharray: none; stroke-linecap: butt; stroke-dashoffset: 0; stroke-linejoin: miter; stroke-miterlimit: 4; fill: rgb(254,215,21); fill-rule: nonzero; opacity: 1;" vector-effect="non-scaling-stroke"  transform=" translate(-991.06, -550.51)" d="M 1356.7775416561117 584.9999999999999 C 1355.2775416561117 731.1584774442729 1254.2587605889928 959.606852984642 1145.0576474687264 991.9754323328191 C 1035.85653434846 1024.3440116809961 780.840614649112 895.1975971629271 701.5708629345128 779.2114760890618 C 622.3011112199135 663.2253550151964 594.0246730920954 406.7565239599409 669.4391371811311 296.05870588962745 C 744.8536012701667 185.36088781931397 1039.5012467228962 66.86768531545212 1154.0576474687264 115.02456766718086 C 1268.6140482145565 163.1814500189096 1358.2775416561117 438.8415225557269 1356.7775416561117 584.9999999999999 C 1355.2775416561117 731.1584774442729 1254.2587605889928 959.606852984642 1145.0576474687264 991.9754323328191" stroke-linecap="round" />
</g>
<g transform="matrix(1.05 0 0 1.05 585.45 541.36)"  >
<path style="stroke: rgb(0,0,0); stroke-width: 0; stroke-dasharray: none; stroke-linecap: butt; stroke-dashoffset: 0; stroke-linejoin: miter; stroke-miterlimit: 4; fill: rgb(248,172,66); fill-rule: nonzero; opacity: 1;" vector-effect="non-scaling-stroke"  transform=" translate(-996.76, -592.88)" d="M 1428 594.9999999999999 C 1427.8038874032295 731.6584377227288 1253.5672553801808 959.0582050775503 1124.0576474687264 1002.9754323328191 C 994.548039557272 1046.892659588088 736.628235020849 971.0638553645321 650.9423525312736 858.5033635316129 C 565.2564700416982 745.9428716986937 530.8936907782611 440.1922409244983 609.9423525312736 327.61248133530376 C 688.9910142842862 215.0327217461092 988.8913818045611 138.46021955232956 1125.2343230493489 183.0248059964456 C 1261.5772642941365 227.58939244056162 1428.1961125967705 458.341562277271 1428 594.9999999999999 C 1427.8038874032295 731.6584377227288 1253.5672553801808 959.0582050775503 1124.0576474687264 1002.9754323328191" stroke-linecap="round" />
</g>
<g transform="matrix(1.13 0 0 1.13 541.04 559.61)"  >
<path style="stroke: rgb(0,0,0); stroke-width: 0; stroke-dasharray: none; stroke-linecap: butt; stroke-dashoffset: 0; stroke-linejoin: miter; stroke-miterlimit: 4; fill: rgb(241,121,89); fill-rule: nonzero; opacity: 1;" vector-effect="non-scaling-stroke"  transform=" translate(-1038.23, -587.19)" d="M 1436.5090992370617 594.9999999999999 C 1432.7690778657015 736.9918107776062 1197.0565245492262 973.6417125660631 1068.7822457459104 1010.9754323328191 C 940.5079669425945 1048.3091520995752 724.5817323310183 912.4749477701641 666.8634264171669 819.0023186005358 C 609.1451205033155 725.5296894309074 651.7459190033177 560.1359491372745 722.4724102628019 450.1396573150487 C 793.1989015222861 340.14336549282285 972.2162591450287 134.881177219689 1091.222373974072 159.02456766718086 C 1210.2284888031154 183.16795811467273 1440.249120608422 453.0081892223935 1436.5090992370617 594.9999999999999 C 1432.7690778657015 736.9918107776062 1197.0565245492262 973.6417125660631 1068.7822457459104 1010.9754323328191" stroke-linecap="round" />
</g>
<g transform="matrix(0 0 0 0 0 0)"  >
<g style=""   >
</g>
</g>
<g transform="matrix(0 0 0 0 0 0)"  >
<g style=""   >
</g>
</g>
<g transform="matrix(0 0 0 0 0 0)"  >
<g style=""   >
</g>
</g>
<g transform="matrix(0 0 0 0 0 0)"  >
<g style=""   >
</g>
</g>
<g transform="matrix(0 0 0 0 0 0)"  >
<g style=""   >
</g>
</g>
<g transform="matrix(NaN NaN NaN NaN 0 0)"  >
<g style=""   >
</g>
</g>
<g transform="matrix(NaN NaN NaN NaN 0 0)"  >
<g style=""   >
</g>
</g>
</svg>