<?xml version="1.0" encoding="UTF-8" standalone="no" ?>
<!DOCTYPE svg PUBLIC "-//W3C//DTD SVG 1.1//EN" "http://www.w3.org/Graphics/SVG/1.1/DTD/svg11.dtd">
<svg xmlns="http://www.w3.org/2000/svg" xmlns:xlink="http://www.w3.org/1999/xlink" version="1.1" width="1080" height="1080" viewBox="0 0 1080 1080" xml:space="preserve">
<desc>Created with Fabric.js 5.2.4</desc>
<defs>
</defs>
<rect x="0" y="0" width="100%" height="100%" fill="transparent"></rect>
<g transform="matrix(1 0 0 1 540 540)" id="a83e92e1-097b-44cf-bfae-cbed6222ba12"  >
<rect style="stroke: none; stroke-width: 1; stroke-dasharray: none; stroke-linecap: butt; stroke-dashoffset: 0; stroke-linejoin: miter; stroke-miterlimit: 4; fill: rgb(255,255,255); fill-rule: nonzero; opacity: 1; visibility: hidden;" vector-effect="non-scaling-stroke"  x="-540" y="-540" rx="0" ry="0" width="1080" height="1080" />
</g>
<g transform="matrix(1 0 0 1 540 540)" id="f9537fdf-75cc-4e7a-a212-f662b0d67a21"  >
</g>
<g transform="matrix(1 0 0 1 414.49 802.69)"  >
<path style="stroke: rgb(0,0,0); stroke-width: 0; stroke-dasharray: none; stroke-linecap: butt; stroke-dashoffset: 0; stroke-linejoin: miter; stroke-miterlimit: 4; fill: rgb(241,121,89); fill-rule: nonzero; opacity: 1;" vector-effect="non-scaling-stroke"  transform=" translate(-957.55, -953.86)" d="M 1920 1080 C 1655.8333333333333 1100.3333333333333 269 1126.1666666666667 0 1080 C -269 1033.8333333333333 200.16666666666669 819.5 306 803 C 411.8333333333333 786.5 526.6666666666666 959.6666666666666 635 981 C 743.3333333333334 1002.3333333333334 851.1666666666666 923.8333333333334 956 931 C 1060.8333333333333 938.1666666666666 1159.1666666666667 1019.5 1264 1024 C 1368.8333333333333 1028.5 1475.6666666666667 948.6666666666666 1585 958 C 1694.3333333333333 967.3333333333334 2184.1666666666665 1059.6666666666667 1920 1080 C 1655.8333333333333 1100.3333333333333 269 1126.1666666666667 0 1080" stroke-linecap="round" />
</g>
<g transform="matrix(1 0 0 1 466.74 867.99)"  >
<path style="stroke: rgb(0,0,0); stroke-width: 0; stroke-dasharray: none; stroke-linecap: butt; stroke-dashoffset: 0; stroke-linejoin: miter; stroke-miterlimit: 4; fill: rgb(248,172,66); fill-rule: nonzero; opacity: 1;" vector-effect="non-scaling-stroke"  transform=" translate(-957.55, -953.86)" d="M 1920 1080 C 1655.8333333333333 1100.3333333333333 269 1126.1666666666667 0 1080 C -269 1033.8333333333333 200.16666666666669 819.5 306 803 C 411.8333333333333 786.5 526.6666666666666 959.6666666666666 635 981 C 743.3333333333334 1002.3333333333334 851.1666666666666 923.8333333333334 956 931 C 1060.8333333333333 938.1666666666666 1159.1666666666667 1019.5 1264 1024 C 1368.8333333333333 1028.5 1475.6666666666667 948.6666666666666 1585 958 C 1694.3333333333333 967.3333333333334 2184.1666666666665 1059.6666666666667 1920 1080 C 1655.8333333333333 1100.3333333333333 269 1126.1666666666667 0 1080" stroke-linecap="round" />
</g>
<g transform="matrix(1 0 0 1 631.73 969.04)"  >
<path style="stroke: rgb(0,0,0); stroke-width: 0; stroke-dasharray: none; stroke-linecap: butt; stroke-dashoffset: 0; stroke-linejoin: miter; stroke-miterlimit: 4; fill: rgb(254,215,21); fill-rule: nonzero; opacity: 1;" vector-effect="non-scaling-stroke"  transform=" translate(-957.95, -985.99)" d="M 1920 1080 C 1665.8333333333333 1114.1666666666667 258.5 1103.8333333333333 0 1080 C -258.5 1056.1666666666667 242.16666666666669 944.5 369 937 C 495.8333333333333 929.5 631 1034.1666666666667 761 1035 C 891 1035.8333333333333 1021.6666666666666 968.6666666666666 1149 942 C 1276.3333333333333 915.3333333333334 1396.5 852 1525 875 C 1653.5 898 2174.1666666666665 1045.8333333333333 1920 1080 C 1665.8333333333333 1114.1666666666667 258.5 1103.8333333333333 0 1080" stroke-linecap="round" />
</g>
<g transform="matrix(0 0 0 0 0 0)"  >
<g style=""   >
</g>
</g>
<g transform="matrix(0 0 0 0 0 0)"  >
<g style=""   >
</g>
</g>
<g transform="matrix(NaN NaN NaN NaN 0 0)"  >
<g style=""   >
</g>
</g>
</svg>