<?xml version="1.0" encoding="UTF-8" standalone="no" ?>
<!DOCTYPE svg PUBLIC "-//W3C//DTD SVG 1.1//EN" "http://www.w3.org/Graphics/SVG/1.1/DTD/svg11.dtd">
<svg xmlns="http://www.w3.org/2000/svg" xmlns:xlink="http://www.w3.org/1999/xlink" version="1.1" width="1080" height="1080" viewBox="0 0 1080 1080" xml:space="preserve">
<desc>Created with Fabric.js 5.2.4</desc>
<defs>
</defs>
<rect x="0" y="0" width="100%" height="100%" fill="transparent"></rect>
<g transform="matrix(1 0 0 1 540 540)" id="eba26a8f-bcec-4061-adb8-edfe7c4ab616"  >
</g>
<g transform="matrix(1 0 0 1 540 540)" id="a64e5da4-83c9-4697-8085-8ab6c8cfcdef"  >
<rect style="stroke: none; stroke-width: 1; stroke-dasharray: none; stroke-linecap: butt; stroke-dashoffset: 0; stroke-linejoin: miter; stroke-miterlimit: 4; fill: rgb(255,255,255); fill-rule: nonzero; opacity: 1; visibility: hidden;" vector-effect="non-scaling-stroke"  x="-540" y="-540" rx="0" ry="0" width="1080" height="1080" />
</g>
<g transform="matrix(NaN NaN NaN NaN 0 0)"  >
<g style=""   >
</g>
</g>
<g transform="matrix(NaN NaN NaN NaN 0 0)"  >
<g style=""   >
</g>
</g>
<g transform="matrix(1.08 0 0 1.08 536.84 539.18)" id="175d9bf7-bb34-44a8-a3d0-2a8942c1c44f"  >
<path style="stroke: rgb(0,0,0); stroke-width: 0; stroke-dasharray: none; stroke-linecap: butt; stroke-dashoffset: 0; stroke-linejoin: miter; stroke-miterlimit: 4; fill: rgb(241,121,89); fill-rule: nonzero; opacity: 1;" vector-effect="non-scaling-stroke"  transform=" translate(-996.76, -592.88)" d="M 1428 594.9999999999999 C 1427.8038874032295 731.6584377227288 1253.5672553801808 959.0582050775503 1124.0576474687264 1002.9754323328191 C 994.548039557272 1046.892659588088 736.628235020849 971.0638553645321 650.9423525312736 858.5033635316129 C 565.2564700416982 745.9428716986937 530.8936907782611 440.1922409244983 609.9423525312736 327.61248133530376 C 688.9910142842862 215.0327217461092 988.8913818045611 138.46021955232956 1125.2343230493489 183.0248059964456 C 1261.5772642941365 227.58939244056162 1428.1961125967705 458.341562277271 1428 594.9999999999999 C 1427.8038874032295 731.6584377227288 1253.5672553801808 959.0582050775503 1124.0576474687264 1002.9754323328191" stroke-linecap="round" />
</g>
</svg>