<?xml version="1.0" encoding="UTF-8" standalone="no" ?>
<!DOCTYPE svg PUBLIC "-//W3C//DTD SVG 1.1//EN" "http://www.w3.org/Graphics/SVG/1.1/DTD/svg11.dtd">
<svg xmlns="http://www.w3.org/2000/svg" xmlns:xlink="http://www.w3.org/1999/xlink" version="1.1" width="1080" height="1080" viewBox="0 0 1080 1080" xml:space="preserve">
<desc>Created with Fabric.js 5.2.4</desc>
<defs>
</defs>
<rect x="0" y="0" width="100%" height="100%" fill="transparent"></rect>
<g transform="matrix(1 0 0 1 540 540)" id="eba26a8f-bcec-4061-adb8-edfe7c4ab616"  >
</g>
<g transform="matrix(1 0 0 1 540 540)" id="a64e5da4-83c9-4697-8085-8ab6c8cfcdef"  >
<rect style="stroke: none; stroke-width: 1; stroke-dasharray: none; stroke-linecap: butt; stroke-dashoffset: 0; stroke-linejoin: miter; stroke-miterlimit: 4; fill: rgb(255,255,255); fill-rule: nonzero; opacity: 1; visibility: hidden;" vector-effect="non-scaling-stroke"  x="-540" y="-540" rx="0" ry="0" width="1080" height="1080" />
</g>
<g transform="matrix(1.16 0 0 1.16 543.8 546.68)"  >
<path style="stroke: rgb(0,0,0); stroke-width: 0; stroke-dasharray: none; stroke-linecap: butt; stroke-dashoffset: 0; stroke-linejoin: miter; stroke-miterlimit: 4; fill: rgb(254,215,21); fill-rule: nonzero; opacity: 1;" vector-effect="non-scaling-stroke"  transform=" translate(-1038.23, -587.19)" d="M 1436.5090992370617 594.9999999999999 C 1432.7690778657015 736.9918107776062 1197.0565245492262 973.6417125660631 1068.7822457459104 1010.9754323328191 C 940.5079669425945 1048.3091520995752 724.5817323310183 912.4749477701641 666.8634264171669 819.0023186005358 C 609.1451205033155 725.5296894309074 651.7459190033177 560.1359491372745 722.4724102628019 450.1396573150487 C 793.1989015222861 340.14336549282285 972.2162591450287 134.881177219689 1091.222373974072 159.02456766718086 C 1210.2284888031154 183.16795811467273 1440.249120608422 453.0081892223935 1436.5090992370617 594.9999999999999 C 1432.7690778657015 736.9918107776062 1197.0565245492262 973.6417125660631 1068.7822457459104 1010.9754323328191" stroke-linecap="round" />
</g>
<g transform="matrix(NaN NaN NaN NaN 0 0)"  >
<g style=""   >
</g>
</g>
</svg>