<?xml version="1.0" encoding="UTF-8" standalone="no" ?>
<!DOCTYPE svg PUBLIC "-//W3C//DTD SVG 1.1//EN" "http://www.w3.org/Graphics/SVG/1.1/DTD/svg11.dtd">
<svg xmlns="http://www.w3.org/2000/svg" xmlns:xlink="http://www.w3.org/1999/xlink" version="1.1" width="1080" height="1080" viewBox="0 0 1080 1080" xml:space="preserve">
<desc>Created with Fabric.js 5.2.4</desc>
<defs>
</defs>
<g transform="matrix(1 0 0 1 540 540)" id="6545e272-3516-4eb1-a3eb-269d01bcfd96"  >
</g>
<g transform="matrix(1 0 0 1 540 540)" id="254a3410-74ee-4419-a7e6-3ed2d027f638"  >
<rect style="stroke: none; stroke-width: 1; stroke-dasharray: none; stroke-linecap: butt; stroke-dashoffset: 0; stroke-linejoin: miter; stroke-miterlimit: 4; fill: rgb(255,255,255); fill-rule: nonzero; opacity: 1; visibility: hidden;" vector-effect="non-scaling-stroke"  x="-540" y="-540" rx="0" ry="0" width="1080" height="1080" />
</g>
<g transform="matrix(52.69 0 0 52.69 539.98 539.97)"  >
<path style="stroke: rgb(0,0,0); stroke-width: 0; stroke-dasharray: none; stroke-linecap: butt; stroke-dashoffset: 0; stroke-linejoin: miter; stroke-miterlimit: 4; fill: rgb(254,215,21); fill-rule: nonzero; opacity: 1;" vector-effect="non-scaling-stroke"  transform=" translate(-12, -12)" d="M 9.163 2.819 C 9 3.139 9 3.559 9 4.4 L 9 11 L 7.803 11 C 6.92 11 6.478 11 6.269 11.176 C 6.087139326801743 11.328871411309875 5.988463439615988 11.5588678400887 6.003 11.796 C 6.0200000000000005 12.07 6.325 12.389 6.934 13.027999999999999 L 11.132000000000001 17.429 C 11.434000000000001 17.747 11.585 17.904999999999998 11.762000000000002 17.964 C 11.916445608837662 18.015758716194885 12.083554391162343 18.015758716194885 12.238000000000003 17.964 C 12.415000000000003 17.904999999999998 12.566000000000003 17.747 12.868000000000004 17.429 L 17.066000000000003 13.028999999999998 C 17.676000000000002 12.388999999999998 17.980000000000004 12.068999999999999 17.996000000000002 11.795999999999998 C 18.010780422230013 11.5590384074674 17.912488520121695 11.329072447817754 17.731 11.175999999999998 C 17.522 11 17.081 11 16.197 11 L 15 11 L 15 4.4 C 15 3.5600000000000005 15 3.1400000000000006 14.836 2.8190000000000004 C 14.692407422971584 2.5366597447509713 14.463120868741218 2.30702313471262 14.181000000000001 2.1630000000000003 C 13.861 2 13.441 2 12.6 2 L 11.4 2 C 10.56 2 10.14 2 9.819 2.163 C 9.536507424175392 2.3068532163532596 9.30685321635326 2.5365074241753915 9.163 2.8190000000000013 z M 5 21 C 5 21.552284749830793 5.447715250169207 22 6 22 L 18 22 C 18.552284749830793 22 19 21.552284749830793 19 21 C 19 20.447715250169207 18.552284749830793 20 18 20 L 6 20 C 5.447715250169207 20 5 20.447715250169207 5 21 z" stroke-linecap="round" />
</g>
<g transform="matrix(NaN NaN NaN NaN 0 0)"  >
<g style=""   >
</g>
</g>
</svg>