<?xml version="1.0" encoding="UTF-8" standalone="no" ?>
<!DOCTYPE svg PUBLIC "-//W3C//DTD SVG 1.1//EN" "http://www.w3.org/Graphics/SVG/1.1/DTD/svg11.dtd">
<svg xmlns="http://www.w3.org/2000/svg" xmlns:xlink="http://www.w3.org/1999/xlink" version="1.1" width="1080" height="1080" viewBox="0 0 1080 1080" xml:space="preserve">
<desc>Created with Fabric.js 5.2.4</desc>
<defs>
</defs>
<g transform="matrix(1 0 0 1 540 540)" id="ad49ad4a-4105-43ea-934e-9fed5dac889e"  >
</g>
<g transform="matrix(1 0 0 1 540 540)" id="15d0add3-c5ae-46fe-9659-000e58a95b47"  >
<rect style="stroke: none; stroke-width: 1; stroke-dasharray: none; stroke-linecap: butt; stroke-dashoffset: 0; stroke-linejoin: miter; stroke-miterlimit: 4; fill: rgb(255,255,255); fill-rule: nonzero; opacity: 1; visibility: hidden;" vector-effect="non-scaling-stroke"  x="-540" y="-540" rx="0" ry="0" width="1080" height="1080" />
</g>
<g transform="matrix(47.66 0 0 47.66 539.35 539.69)"  >
<path style="stroke: none; stroke-width: 1; stroke-dasharray: none; stroke-linecap: butt; stroke-dashoffset: 0; stroke-linejoin: miter; stroke-miterlimit: 4; fill: rgb(255,255,255); fill-rule: nonzero; opacity: 1;" vector-effect="non-scaling-stroke"  transform=" translate(-12, -12)" d="M 12 2.5 L 20.84 5.65 L 19.5 17.35 L 12 21.5 L 4.5 17.35 L 3.16 5.65 L 12 2.5 M 12 4.6 L 6.47 17 L 8.53 17 L 9.639999999999999 14.22 L 14.34 14.22 L 15.45 17 L 17.5 17 L 12 4.6 M 13.620000000000001 12.5 L 10.39 12.5 L 12 8.63 Z" stroke-linecap="round" />
</g>
</svg>